<svg width="27" height="27" viewBox="0 0 27 27" fill="none" xmlns="http://www.w3.org/2000/svg">
<path d="M17.4375 4.625C19.0175 4.625 19.8075 4.625 20.375 5.00419C20.6207 5.16835 20.8316 5.37929 20.9958 5.62497C21.375 6.19247 21.375 6.98248 21.375 8.5625V19.25C21.375 21.3713 21.375 22.432 20.716 23.091C20.057 23.75 18.9963 23.75 16.875 23.75H10.125C8.00368 23.75 6.94302 23.75 6.28401 23.091C5.625 22.432 5.625 21.3713 5.625 19.25V8.5625C5.625 6.98248 5.625 6.19247 6.00419 5.62497C6.16835 5.37929 6.37929 5.16835 6.62497 5.00419C7.19247 4.625 7.98248 4.625 9.5625 4.625" stroke="#19CBBF" stroke-width="2"/>
<path d="M10.125 4.625C10.125 3.38236 11.1324 2.375 12.375 2.375H14.625C15.8676 2.375 16.875 3.38236 16.875 4.625C16.875 5.86764 15.8676 6.875 14.625 6.875H12.375C11.1324 6.875 10.125 5.86764 10.125 4.625Z" stroke="#19CBBF" stroke-width="2"/>
<path d="M10.125 12.5L16.875 12.5" stroke="#19CBBF" stroke-width="2" stroke-linecap="round"/>
<path d="M10.125 17L14.625 17" stroke="#19CBBF" stroke-width="2" stroke-linecap="round"/>
</svg>
