<svg width="27" height="27" viewBox="0 0 27 27" fill="none" xmlns="http://www.w3.org/2000/svg">
<path d="M5 13.2443C5 11.6368 5 10.8331 5.33327 10.1266C5.66655 9.42017 6.29244 8.89711 7.54423 7.85101L8.75852 6.83624C11.0211 4.94541 12.1524 4 13.5 4C14.8476 4 15.9789 4.94541 18.2415 6.83624L19.4558 7.85101C20.7076 8.89711 21.3335 9.42017 21.6667 10.1266C22 10.8331 22 11.6368 22 13.2443V18.2644C22 20.4968 22 21.613 21.2887 22.3065C20.5774 23 19.4325 23 17.1429 23H9.85714C7.56746 23 6.42262 23 5.71131 22.3065C5 21.613 5 20.4968 5 18.2644V13.2443Z" stroke="#C4C4C4" stroke-width="2"/>
<path d="M16 23V17C16 16.4477 15.5523 16 15 16H12C11.4477 16 11 16.4477 11 17V23" stroke="#C4C4C4" stroke-width="2" stroke-linecap="round" stroke-linejoin="round"/>
</svg>
