<svg width="27" height="27" viewBox="0 0 27 27" fill="none" xmlns="http://www.w3.org/2000/svg">
<circle cx="13.5" cy="13.5" r="10.5" stroke="#C9CCD0" stroke-width="2" stroke-linecap="round"/>
<path d="M18 9L9 12" stroke="#C9CCD0" stroke-width="2" stroke-linecap="round"/>
<path d="M9 9L18 12" stroke="#C9CCD0" stroke-width="2" stroke-linecap="round"/>
<path d="M9 15.5556C9 15.504 9 15.4782 9.0019 15.4564C9.02305 15.2147 9.2147 15.0231 9.45642 15.0019C9.47817 15 9.50396 15 9.55556 15H17.4444C17.496 15 17.5218 15 17.5436 15.0019C17.7853 15.0231 17.9769 15.2147 17.9981 15.4564C18 15.4782 18 15.504 18 15.5556C18 15.9683 18 16.1746 17.9848 16.3486C17.8156 18.2824 16.2824 19.8156 14.3486 19.9848C14.1746 20 13.9683 20 13.5556 20H13.4444C13.0317 20 12.8254 20 12.6514 19.9848C10.7176 19.8156 9.18441 18.2824 9.01522 16.3486C9 16.1746 9 15.9683 9 15.5556Z" fill="#C9CCD0"/>
</svg>
